<?xml version="1.0" encoding="utf-8"?>
<!-- Generator: Adobe Illustrator 26.0.3, SVG Export Plug-In . SVG Version: 6.00 Build 0)  -->
<svg version="1.1" id="Layer_1" xmlns="http://www.w3.org/2000/svg" xmlns:xlink="http://www.w3.org/1999/xlink" x="0px" y="0px"
	 viewBox="0 0 500 100" style="enable-background:new 0 0 500 100;" xml:space="preserve">
<style type="text/css">
	.st0{fill:none;}
	.st1{fill:#414042;}
	.st2{fill:#FFFFFF;}
	.st3{fill:#E34626;}
</style>
<g id="Group_385" transform="translate(-5208 1261)">
	<rect id="Rectangle_200" x="5220.5" y="-1248.5" class="st0" width="75" height="75"/>
	<path id="Path_763" class="st1" d="M5235.6-1236.7c-0.5,0-1.1,0-1.7,0c-1.2,0-2.4-0.1-3.3-0.1c-0.1,0.2-0.1,0.5-0.1,0.8
		c0,2.2,1.9,3.2,8.6,3.2c6.4,0,8.4-1.1,8.4-3.6c0-2.4-1.5-3.2-7-3.4c-4.1-0.2-4.4-0.4-4.4-0.8c0-0.4,0.4-0.6,2.9-0.6
		c2.7,0,3.2,0.2,3.2,0.9v0.2c0.5,0,1.1-0.1,1.9-0.1c1.1,0,2.3,0,3.1,0.1c0-0.2,0-0.4,0-0.7c0-2.4-1.8-3.1-8.4-3.1
		c-6,0-8.2,1-8.2,3.6c0,2.2,1.3,3.1,7.3,3.3c3.8,0.1,4.1,0.4,4.1,0.8c0,0.4-0.4,0.6-3.1,0.6
		C5236.3-1235.7,5235.7-1236,5235.6-1236.7L5235.6-1236.7z M5261.7-1243.7c0.1,1.5,0.1,3.8,0.1,5c0,1.5-0.9,2.1-3.3,2.1
		c-2.3,0-3.4-0.7-3.4-2.1c0-1.3,0.1-3.5,0.1-5h-5.9c0.1,0.8,0.1,1.6,0.1,2.9c0,0.7,0,1.7,0,2.4c0,4,1.9,5.5,8.9,5.5s8.9-1.5,8.9-5.5
		c0-0.6-0.1-1.7-0.1-2.4c0-1.3,0-2.1,0.1-2.9H5261.7z M5280-1235.8c-1.3,0-2.8,0-4.7,0c0-0.5,0-1.1,0-1.7c1.7-0.1,3.3-0.1,4.6-0.1
		c1,0,1.4,0.2,1.4,0.8C5281.3-1236.1,5281-1235.8,5280-1235.8z M5281.3-1240.5c0,0.6-0.5,0.9-1.4,0.9c-1.4,0-2.9,0-4.7,0v-1.7
		c1.7,0,3.3,0,4.7,0C5281-1241.3,5281.3-1241.1,5281.3-1240.5z M5283.6-1238.4c0.5,0,1-0.2,1.4-0.2c1.3-0.4,1.8-1.1,1.8-2.2
		c0-2-1.6-2.7-4.5-2.7h-12.6c0.1,1.4,0.1,3,0.1,5.2s0,3.8-0.1,5.2h12.9c3.2,0,4.5-0.7,4.5-2.7c0-1.3-0.6-2-2.2-2.3
		c-0.5-0.1-0.8-0.2-1.3-0.2L5283.6-1238.4z M5253-1216.9c-0.1-1.5-0.1-3-0.1-5.2c0-2.3,0.1-3.8,0.1-5.2h-6.8
		c-0.5,1.1-1.4,2.5-2.4,4.2c-0.3,0.5-0.6,1.1-0.9,1.7l0,0c-0.3-0.6-0.7-1.3-0.9-1.7c-1-1.7-1.9-3.1-2.4-4.2h-7.5
		c0.1,1.4,0.1,2.9,0.1,5.2c0,2.2,0,3.8-0.1,5.2h4.8c-0.1-1.3-0.1-2.7-0.1-4.4c0-0.7-0.1-1.4-0.1-2.1h0.1c0.3,0.7,0.7,1.4,1,1.9
		l3.2,4.6h3l2.9-4.1c0.4-0.7,0.7-1.3,1-2h0.1c-0.1,0.7-0.1,1.4-0.1,2.1c0,1.5-0.1,2.7-0.1,4.1H5253z M5265.5-1216.9
		c0-1.6-0.1-3.1-0.1-5.2c0-2.2,0-3.6,0.1-5.2h-5.7c0.1,1.7,0.1,3,0.1,5.2s0,3.6-0.1,5.2H5265.5z M5271-1227.4c0,0.5,0,1.2,0,1.9
		c0,0.7,0,1.4,0,1.9c1.7,0,3.3-0.1,4.8-0.1c0,3.2,0,6-0.1,6.8c0.8-0.1,2.1-0.1,3.1-0.1c0.9,0,2.3,0,3,0.1c-0.1-0.8-0.1-3.5-0.1-6.8
		c1.5,0,3.1,0,4.8,0.1c-0.1-0.5-0.1-1.3-0.1-1.9c0-0.7,0-1.4,0.1-1.9H5271z"/>
	<path id="Union_15" class="st1" d="M5220.5-1201h9.7v-10.3h55.7v10.3h9.7l-37.5,24.5L5220.5-1201z"/>
</g>
<path id="Subtraction_10" class="st2" d="M150,100L150,100c0-3.3-0.4-6.6-1-9.8c-1.3-6.4-3.9-12.5-7.5-17.9
	c-5.4-8.1-13.1-14.4-22-18.2c-3-1.3-6.2-2.3-9.4-2.9c-3.3-0.7-6.7-1-10.1-1l0,0c3.4,0,6.8-0.3,10.1-1c6.4-1.3,12.5-3.9,17.9-7.5
	c13.8-9.5,22-25,22-41.7c0,3.4,0.3,6.8,1,10.1c1.3,6.4,3.9,12.5,7.5,17.9c5.4,8.1,13.1,14.4,22,18.2c3,1.3,6.2,2.3,9.4,2.9
	c3.3,0.7,6.7,1,10.1,1c-3.4,0-6.7,0.3-10.1,1c-6.4,1.3-12.5,3.9-17.9,7.5C158.3,68,150.1,83.4,150,100z"/>
<path id="Path_762" class="st2" d="M250,37.3L242.1,0l4,38L227,4.9l15.5,34.9l-28.4-25.6l25.6,28.4L204.9,27L238,46.1l-38-4
	l37.3,7.9L200,57.9l38-4L204.9,73l34.9-15.5l-25.6,28.4l28.4-25.6L227,95.1L246.1,62l-4,38l7.9-37.3l7.9,37.3l-4-38L273,95.1
	l-15.5-34.9l28.4,25.6l-25.6-28.4L295.1,73L262,53.9l38,4L262.7,50l37.3-7.9l-38,4L295.1,27l-34.9,15.5l25.6-28.4l-28.4,25.6
	L273,4.9L253.9,38l4-38L250,37.3z"/>
<path id="Union_38" class="st3" d="M433,72.5h-33v-45h33V0l67,50l-67,50V72.5z"/>
<path id="Union_38_00000044876675594058268050000015618995712795317924_" class="st2" d="M333,72.5h-33v-45h33V0l67,50l-67,50V72.5z
	"/>
</svg>
