<?xml version="1.0" encoding="utf-8"?>
<!-- Generator: Adobe Illustrator 26.0.2, SVG Export Plug-In . SVG Version: 6.00 Build 0)  -->
<svg version="1.1" id="illo-toothpick" class="illo illo--toothpick" xmlns="http://www.w3.org/2000/svg" xmlns:xlink="http://www.w3.org/1999/xlink" x="0px"
	 y="0px" viewBox="0 0 177.1 401.1" style="enable-background:new 0 0 177.1 401.1;" xml:space="preserve">
<style type="text/css">
	.st0{fill:#FFFFFF;}
</style>
<path class="st0" d="M75.2,278.9c-1.5-0.3-3-0.5-4.5-0.8s-3-0.6-4.5-0.9c-7.4,38.1-14.4,74.3-21,106.4c-1.1,5.9-2.3,11.9-3.4,18
	l8.8,1.7c1.2-6.1,2.4-12.1,3.7-17.9C60.3,353.1,67.5,317,75.2,278.9z"/>
<path class="st0" d="M91.3,173.9c44,8.7,81.6,0,85.5-19.8c3.8-19.2-25.4-40.7-67.1-50c10.2-54.2,9.6-57.9,15.6-102
	c-11.4,43.3-13.3,46.4-24.4,100.3c-42.1-7.3-77.2,1.5-81,20.7C15.9,142.8,47.3,165.2,91.3,173.9z M170,152.7
	c-2.6,13.3-32.2,22.2-72.7,15.3c3.8-19.1,7.5-38.3,11.1-57.2C148.7,119.8,172.7,139.3,170,152.7L170,152.7z M99.5,109
	c-3.9,18.8-7.7,37.9-11.6,57.1c-40.1-9-64-28.5-61.4-41.8S58.8,102,99.5,109z"/>
<path class="st0" d="M71.8,272.4c44,8.7,81.6,0,85.5-19.8c3.8-19.1-25.3-40.6-66.8-49.9c1.5-7.4,2.9-14.9,4.4-22.3
	c-1.6-0.3-3.2-0.6-4.7-0.9c-1.6-0.3-3.2-0.6-4.7-1c-1.5,7.5-2.9,14.9-4.4,22.3c-41.9-7.2-76.9,1.6-80.7,20.7
	C-3.6,241.4,27.8,263.7,71.8,272.4z M89.2,209.4c40.1,9,64,28.5,61.4,41.8c-2.6,13.3-32.3,22.3-72.9,15.3
	C81.5,247.8,85.3,228.7,89.2,209.4L89.2,209.4z M79.8,207.5c-3.8,19.3-7.5,38.4-11.1,57.2c-40.2-9-64.2-28.5-61.6-41.9
	C9.7,209.5,39.2,200.6,79.8,207.5L79.8,207.5z"/>
</svg>
