<svg id="illo-sputnik" class="illo illo--sputnik" viewBox="0 0 319.97 344.88">
  <path d="M238.21,344.81a23.92,23.92,0,0,1-14-41.51l-58.06-82.88a54.86,54.86,0,0,1-51.7,7.05L55.24,329.93a3.15,3.15,0,0,1-5.45-3.15l58.83-101.89a54.86,54.86,0,0,1-12.16-8.57l-91.75,53a3.15,3.15,0,0,1-3.15-5.45h0L92,211.63a54.78,54.78,0,0,1,6.36-77.21,52.58,52.58,0,0,1,4.93-3.72L43.37,45.19a23.94,23.94,0,1,1,5.17-3.6l60.16,85.9a54.87,54.87,0,0,1,54.65,2.6l33.1-57.33c-10-6.54-17.77-15.4-14.8-20.54,1.5-2.6,5.4-3.49,11-2.52a52.13,52.13,0,0,1,14.22,5.06l.1-.18c-10-6.53-17.77-15.4-14.8-20.54,1.5-2.6,5.4-3.49,11-2.51a52.11,52.11,0,0,1,14.22,5l13.59-23.53a3.14,3.14,0,1,1,5.45,3.14L222.81,39.68c10.48,6.59,18.94,15.9,15.86,21.22-1.15,2-3.62,2.88-6.82,2.88-5.31,0-12.66-2.4-19.49-6l0,.08c10.47,6.59,18.93,15.9,15.86,21.22-1.16,2-3.62,2.88-6.83,2.88-5.31,0-12.66-2.4-19.48-6l-33.41,57.87a54.79,54.79,0,0,1,16.88,23.91l130-75a3.15,3.15,0,0,1,3.15,5.45L187.17,164A54.86,54.86,0,0,1,171,216.4l58.35,83.31a23.93,23.93,0,1,1,11,45.19C239.62,344.9,238.92,344.87,238.21,344.81Zm-3.47-40.57-.06,0c-.27.09-.54.18-.8.29l-.11,0c-.25.1-.5.2-.74.32l0,0h0a17.63,17.63,0,0,0-6.69,5.32h0q-.22.28-.42.57l-.07.1-.36.53-.08.14-.33.53-.07.14a16.59,16.59,0,0,0-1.21,2.6l0,.06-.21.63,0,.12c-.07.21-.13.43-.19.64l0,.11c-.05.23-.11.45-.16.67a.14.14,0,0,1,0,.07,19.45,19.45,0,0,0-.35,2.27,17.63,17.63,0,1,0,19.11-16c-.52-.05-1-.07-1.55-.07a17.44,17.44,0,0,0-5.55.9Zm-133.51-128a39.88,39.88,0,1,0,40.09-39.67h-.21A39.77,39.77,0,0,0,101.23,176.21ZM217.57,79.53c4.58.8,7.79.25,8.8-1.5s-.12-4.8-3.1-8.36a51.56,51.56,0,0,0-12-10l-8.35,14.46A51.38,51.38,0,0,0,217.57,79.53ZM183.46,53.27c-1,1.75.13,4.8,3.11,8.36a50.13,50.13,0,0,0,10.92,9.31l8.3-14.36a49.74,49.74,0,0,0-13.53-4.8,22.48,22.48,0,0,0-3.75-.37c-2.56,0-4.34.63-5,1.85Zm44.6,8.08c4.58.8,7.79.25,8.8-1.5s-.12-4.8-3.1-8.36a51.56,51.56,0,0,0-12-10L213.42,56a51.49,51.49,0,0,0,14.64,5.39ZM194,35.09c-1,1.75.12,4.8,3.1,8.37A50.4,50.4,0,0,0,208,52.77l8.31-14.37a50.08,50.08,0,0,0-13.53-4.8,22.6,22.6,0,0,0-3.76-.37c-2.56,0-4.33.64-5,1.86Z"/>
</svg>
