<svg id="lines-doors" class="lines lines--doors" width="1284" height="644.02" viewBox="0 0 1284 644.02">
  <path class="lines__path"
    d="M2,642V220.35C2,123.18,50.07,69,90.39,40.63,132.22,11.22,174,4,178.58,3.31L186.83,2l8.24,1.29c4.62.73,46.36,7.91,88.19,37.32,40.32,28.35,88.39,82.55,88.39,179.72V642Z" />
  <path class="lines__path"
    d="M14.25,641.91V220.35c0-91.92,45.24-143,83.19-169.71,39.57-27.83,78.7-34.55,83-35.23l6.36-1,6.35,1c4.33.68,43.48,7.42,83,35.23,37.95,26.69,83.19,77.79,83.19,169.71V641.91" />
  <path class="lines__path"
    d="M26.49,641.91V220.35c0-86.67,42.41-134.68,78-159.69,37.31-26.23,73.83-32.52,77.87-33.15l4.48-.7,4.46.7c4,.63,40.59,6.93,77.88,33.15,35.58,25,78,73,78,159.69V641.91" />
  <path class="lines__path"
    d="M38.74,641.91V220.35c0-81.41,39.58-126.33,72.79-149.68,35-24.63,69-30.48,72.71-31.07l2.59-.4,2.57.4c3.75.59,37.7,6.45,72.73,31.07,33.2,23.35,72.78,68.27,72.78,149.68V641.91" />
  <path class="lines__path"
    d="M51,641.91V220.35c0-76.16,36.76-118,67.59-139.66,32.76-23,64.1-28.45,67.56-29l.7-.11.67.11c3.47.54,34.83,6,67.58,29,30.83,21.68,67.59,63.51,67.59,139.66V641.91" />
  <path class="lines__path"
    d="M63.23,641.91V220.35c0-70.9,33.93-109.64,62.39-129.65,28.11-19.77,54.74-25.53,61.21-26.7,6.48,1.17,33.11,7,61.21,26.7,28.46,20,62.38,58.75,62.38,129.65V641.91" />
  <path class="lines__path"
    d="M75.48,641.91V220.35c0-65.65,31.09-101.29,57.18-119.63a153.43,153.43,0,0,1,54.16-24.24A153.61,153.61,0,0,1,241,100.71c26.09,18.35,57.19,54,57.19,119.64V641.91" />
  <path class="lines__path"
    d="M87.72,641.91V220.35c0-60.39,28.27-92.94,52-109.62A144.31,144.31,0,0,1,186.82,89,144.28,144.28,0,0,1,234,110.73c23.71,16.68,52,49.23,52,109.62V641.91" />
  <path class="lines__path"
    d="M100,641.91V220.35c0-55.14,25.44-84.6,46.78-99.6a133.46,133.46,0,0,1,40.07-19,133.44,133.44,0,0,1,40.08,19c21.34,15,46.78,44.47,46.78,99.61V641.91" />
  <path class="lines__path"
    d="M112.21,641.91V220.35c0-49.88,22.61-76.25,41.58-89.59a122.47,122.47,0,0,1,33-16.3,122.22,122.22,0,0,1,33,16.3c19,13.34,41.58,39.71,41.58,89.59V641.91" />
  <path class="lines__path"
    d="M124.46,641.91V220.35c0-24.63,6.31-58.43,36.38-79.57a109,109,0,0,1,26-13.4,108.77,108.77,0,0,1,26,13.39c30.07,21.15,36.38,54.95,36.38,79.58V641.91" />
  <path class="lines__path"
    d="M136.71,641.91V220.35c0-21.73,5.4-51.44,31.17-69.56a97.38,97.38,0,0,1,18.94-10.31,97.14,97.14,0,0,1,19,10.31C231.54,168.91,237,198.62,237,220.35V641.91" />
  <path class="lines__path"
    d="M149,641.91V220.35c0-34.12,14.13-51.21,26-59.54a82,82,0,0,1,11.89-6.94,81.54,81.54,0,0,1,11.9,6.93c11.85,8.34,26,25.43,26,59.55V641.91" />
  <path class="lines__path"
    d="M161.2,641.91V220.35c0-15.93,3.6-37.46,20.77-49.53,1.55-1.09,3.18-2.13,4.86-3.11,1.67,1,3.3,2,4.85,3.11,17.17,12.07,20.77,33.6,20.77,49.53V641.91" />
  <path class="lines__path"
    d="M173.44,641.91V220.35c0-12.26,2.39-28.41,13.39-37.82,11,9.41,13.38,25.56,13.38,37.82V641.91" />
  <line class="lines__path" x1="186.72" y1="641.91" x2="186.72" y2="207.04" />
  <path class="lines__path"
    d="M457.17,642V220.35c0-97.17,48.07-151.37,88.4-179.72C587.39,11.22,629.13,4,633.75,3.31L642,2l8.24,1.29c4.62.73,46.36,7.91,88.19,37.32,40.33,28.35,88.4,82.55,88.4,179.72V642Z" />
  <path class="lines__path"
    d="M469.42,641.91V220.35c0-91.92,45.24-143,83.19-169.71,39.58-27.83,78.7-34.55,83-35.23l6.36-1,6.35,1c4.33.68,43.48,7.42,83,35.23,38,26.69,83.19,77.79,83.19,169.71V641.91" />
  <path class="lines__path"
    d="M481.67,641.91V220.35c0-86.67,42.41-134.68,78-159.69,37.3-26.23,73.83-32.52,77.87-33.15l4.47-.7,4.46.7c4,.63,40.59,6.93,77.88,33.15,35.58,25,78,73,78,159.69V641.91" />
  <path class="lines__path"
    d="M493.91,641.91V220.35c0-81.41,39.58-126.33,72.79-149.68,35-24.63,69-30.48,72.72-31.07l2.58-.4,2.57.4c3.75.59,37.71,6.45,72.73,31.07,33.21,23.35,72.79,68.27,72.79,149.68V641.91" />
  <path class="lines__path"
    d="M506.16,641.91V220.35c0-76.16,36.75-118,67.58-139.66,32.76-23,64.1-28.45,67.57-29l.69-.11.68.11c3.47.54,34.82,6,67.57,29,30.84,21.68,67.59,63.51,67.59,139.66V641.91" />
  <path class="lines__path"
    d="M518.4,641.91V220.35c0-70.9,33.93-109.64,62.39-129.65C608.91,70.93,635.53,65.17,642,64c6.49,1.17,33.12,7,61.21,26.7,28.46,20,62.39,58.75,62.39,129.65V641.91" />
  <path class="lines__path"
    d="M530.65,641.91V220.35c0-65.65,31.1-101.29,57.18-119.63A153.45,153.45,0,0,1,642,76.48a153.51,153.51,0,0,1,54.16,24.23c26.09,18.35,57.19,54,57.19,119.64V641.91" />
  <path class="lines__path"
    d="M542.9,641.91V220.35c0-60.39,28.26-92.94,52-109.62A144.22,144.22,0,0,1,642,89a144.35,144.35,0,0,1,47.12,21.69c23.71,16.68,52,49.23,52,109.62V641.91" />
  <path class="lines__path"
    d="M555.14,641.91V220.35c0-55.14,25.44-84.6,46.78-99.6a133.6,133.6,0,0,1,40.08-19,133.52,133.52,0,0,1,40.07,19c21.35,15,46.79,44.47,46.79,99.61V641.91" />
  <path class="lines__path"
    d="M567.39,641.91V220.35c0-49.88,22.61-76.25,41.58-89.59a122.19,122.19,0,0,1,33-16.3,122.19,122.19,0,0,1,33,16.3c19,13.34,41.58,39.71,41.58,89.59V641.91" />
  <path class="lines__path"
    d="M579.63,641.91V220.35c0-24.63,6.31-58.43,36.38-79.57a108.85,108.85,0,0,1,26-13.4,109.14,109.14,0,0,1,26,13.39c30.06,21.15,36.38,54.95,36.38,79.58V641.91" />
  <path class="lines__path"
    d="M591.88,641.91V220.35c0-21.73,5.41-51.44,31.17-69.56a97.71,97.71,0,0,1,19-10.31,97.38,97.38,0,0,1,18.94,10.31c25.77,18.12,31.18,47.83,31.18,69.56V641.91" />
  <path class="lines__path"
    d="M604.13,641.91V220.35c0-34.12,14.12-51.21,26-59.54a82.12,82.12,0,0,1,11.9-6.94,82.61,82.61,0,0,1,11.9,6.93c11.85,8.34,26,25.43,26,59.55V641.91" />
  <path class="lines__path"
    d="M616.37,641.91V220.35c0-15.93,3.61-37.46,20.77-49.53q2.34-1.63,4.86-3.11,2.52,1.47,4.85,3.11c17.17,12.07,20.78,33.6,20.78,49.53V641.91" />
  <path class="lines__path"
    d="M628.62,641.91V220.35c0-12.26,2.39-28.41,13.38-37.82,11,9.41,13.38,25.56,13.38,37.82V641.91" />
  <line class="lines__path" x1="641.89" y1="641.91" x2="641.89" y2="207.04" />
  <path class="lines__path"
    d="M912.35,642V220.35c0-97.17,48.06-151.37,88.39-179.72C1042.56,11.22,1084.3,4,1088.93,3.31L1097.17,2l8.25,1.29c4.62.73,46.36,7.91,88.19,37.32C1233.93,69,1282,123.18,1282,220.35V642Z" />
  <path class="lines__path"
    d="M924.59,641.91V220.35c0-91.92,45.24-143,83.2-169.71,39.57-27.83,78.69-34.55,83-35.23l6.36-1,6.36,1c4.33.68,43.47,7.42,83,35.23,38,26.69,83.19,77.79,83.19,169.71V641.91" />
  <path class="lines__path"
    d="M936.84,641.91V220.35c0-86.67,42.41-134.68,78-159.69,37.3-26.23,73.83-32.52,77.87-33.15l4.47-.7,4.46.7c4,.63,40.59,6.93,77.89,33.15,35.58,25,78,73,78,159.69V641.91" />
  <path class="lines__path"
    d="M949.09,641.91V220.35c0-81.41,39.58-126.33,72.78-149.68,35-24.63,69-30.48,72.72-31.07l2.58-.4,2.57.4c3.76.59,37.71,6.45,72.73,31.07,33.21,23.35,72.79,68.27,72.79,149.68V641.91" />
  <path class="lines__path"
    d="M961.33,641.91V220.35c0-76.16,36.76-118,67.59-139.66,32.76-23,64.09-28.45,67.56-29l.69-.11.68.11c3.47.54,34.82,6,67.58,29,30.83,21.68,67.59,63.51,67.59,139.66V641.91" />
  <path class="lines__path"
    d="M973.58,641.91V220.35c0-70.9,33.92-109.64,62.38-129.65,28.12-19.77,54.75-25.53,61.21-26.7,6.49,1.17,33.12,7,61.21,26.7,28.46,20,62.39,58.75,62.39,129.65V641.91" />
  <path class="lines__path"
    d="M985.82,641.91V220.35c0-65.65,31.1-101.29,57.19-119.63a153.43,153.43,0,0,1,54.16-24.24,153.61,153.61,0,0,1,54.17,24.23c26.09,18.35,57.18,54,57.18,119.64V641.91" />
  <path class="lines__path"
    d="M998.07,641.91V220.35c0-60.39,28.27-92.94,52-109.62A144.22,144.22,0,0,1,1097.17,89a144.17,144.17,0,0,1,47.12,21.69c23.72,16.68,52,49.23,52,109.62V641.91" />
  <path class="lines__path"
    d="M1010.32,641.91V220.35c0-55.14,25.43-84.6,46.78-99.6a133.46,133.46,0,0,1,40.07-19,133.66,133.66,0,0,1,40.08,19c21.34,15,46.78,44.47,46.78,99.61V641.91" />
  <path class="lines__path"
    d="M1022.56,641.91V220.35c0-49.88,22.61-76.25,41.58-89.59a122.33,122.33,0,0,1,33-16.3,122.05,122.05,0,0,1,33,16.3c19,13.34,41.59,39.71,41.59,89.59V641.91" />
  <path class="lines__path"
    d="M1034.81,641.91V220.35c0-24.63,6.31-58.43,36.37-79.57a108.85,108.85,0,0,1,26-13.4,109.14,109.14,0,0,1,26,13.39c30.07,21.15,36.38,54.95,36.38,79.58V641.91" />
  <path class="lines__path"
    d="M1047.05,641.91V220.35c0-21.73,5.41-51.44,31.18-69.56a97.38,97.38,0,0,1,18.94-10.31,97.09,97.09,0,0,1,18.94,10.31c25.77,18.12,31.18,47.83,31.18,69.56V641.91" />
  <path class="lines__path"
    d="M1059.3,641.91V220.35c0-34.12,14.12-51.21,26-59.54a82.66,82.66,0,0,1,11.9-6.94,82.07,82.07,0,0,1,11.9,6.93c11.85,8.34,26,25.43,26,59.55V641.91" />
  <path class="lines__path"
    d="M1071.55,641.91V220.35c0-15.93,3.6-37.46,20.77-49.53q2.33-1.63,4.85-3.11,2.52,1.47,4.85,3.11c17.18,12.07,20.78,33.6,20.78,49.53V641.91" />
  <path class="lines__path"
    d="M1083.79,641.91V220.35c0-12.26,2.39-28.41,13.38-37.82,11,9.41,13.39,25.56,13.39,37.82V641.91" />
  <line class="lines__path" x1="1097.07" y1="641.91" x2="1097.07" y2="207.04" />
</svg>