<svg id="lines-martini" class="lines lines--martini" viewBox="0 0 802.83 601.41">
	<g id="lines-martini-1">
		<line class="lines__path" x1="402.57" y1="14.08" x2="386.35" y2="-2.14" />
		<line class="lines__path" x1="399.76" y1="14.08" x2="415.98" y2="-2.14" />
	</g>

	<g id="lines-martini-2">
		<line class="lines__path" x1="402.57" y1="30.22" x2="370.21" y2="-2.14" />
		<line class="lines__path" x1="399.76" y1="30.22" x2="432.12" y2="-2.14" />
	</g>

	<g id="lines-martini-3">
		<line class="lines__path" x1="402.57" y1="46.36" x2="354.08" y2="-2.14" />
		<line class="lines__path" x1="399.76" y1="46.36" x2="448.25" y2="-2.14" />
	</g>

	<g id="lines-martini-4">
		<line class="lines__path" x1="402.58" y1="62.5" x2="337.94" y2="-2.14" />
		<line class="lines__path" x1="399.75" y1="62.5" x2="464.39" y2="-2.14" />
	</g>

	<g id="lines-martini-5">
		<line class="lines__path" x1="402.58" y1="78.64" x2="321.81" y2="-2.14" />
		<line class="lines__path" x1="399.75" y1="78.64" x2="480.52" y2="-2.14" />
	</g>

	<g id="lines-martini-6">
		<line class="lines__path" x1="402.59" y1="94.78" x2="305.67" y2="-2.14" />
		<line class="lines__path" x1="399.74" y1="94.78" x2="496.66" y2="-2.14" />
	</g>

	<g id="lines-martini-7">
		<line class="lines__path" x1="402.59" y1="110.92" x2="289.54" y2="-2.14" />
		<line class="lines__path" x1="399.74" y1="110.92" x2="512.79" y2="-2.14" />
	</g>

	<g id="lines-martini-8">
		<line class="lines__path" x1="402.6" y1="127.06" x2="273.4" y2="-2.14" />
		<line class="lines__path" x1="399.73" y1="127.06" x2="528.93" y2="-2.14" />
	</g>

	<g id="lines-martini-9">
		<line class="lines__path" x1="402.6" y1="143.2" x2="257.27" y2="-2.14" />
		<line class="lines__path" x1="399.73" y1="143.2" x2="545.06" y2="-2.14" />
	</g>

	<g id="lines-martini-10">
		<line class="lines__path" x1="402.61" y1="159.33" x2="241.13" y2="-2.14" />
		<line class="lines__path" x1="399.72" y1="159.33" x2="561.2" y2="-2.14" />
	</g>

	<g id="lines-martini-11">
		<line class="lines__path" x1="402.61" y1="175.47" x2="225" y2="-2.14" />
		<line class="lines__path" x1="399.72" y1="175.47" x2="577.33" y2="-2.14" />
	</g>

	<g id="lines-martini-12">
		<line class="lines__path" x1="402.61" y1="192.58" x2="207.89" y2="-2.14" />
		<line class="lines__path" x1="399.72" y1="192.58" x2="594.44" y2="-2.14" />
	</g>

	<g id="lines-martini-13">
		<line class="lines__path" x1="402.6" y1="209.68" x2="190.78" y2="-2.14" />
		<line class="lines__path" x1="399.73" y1="209.68" x2="611.55" y2="-2.14" />
	</g>

	<g id="lines-martini-14">
		<line class="lines__path" x1="402.6" y1="226.79" x2="173.67" y2="-2.14" />
		<line class="lines__path" x1="399.73" y1="226.79" x2="628.66" y2="-2.14" />
	</g>

	<g id="lines-martini-15">
		<line class="lines__path" x1="402.6" y1="243.89" x2="156.56" y2="-2.14" />
		<line class="lines__path" x1="399.73" y1="243.89" x2="645.77" y2="-2.14" />
	</g>

	<g id="lines-martini-16">
		<line class="lines__path" x1="402.59" y1="261" x2="139.46" y2="-2.14" />
		<line class="lines__path" x1="399.74" y1="261" x2="662.87" y2="-2.14" />
	</g>

	<g id="lines-martini-17">
		<line class="lines__path" x1="402.59" y1="278.1" x2="122.35" y2="-2.14" />
		<line class="lines__path" x1="399.74" y1="278.1" x2="679.98" y2="-2.14" />
	</g>

	<g id="lines-martini-18">
		<line class="lines__path" x1="402.59" y1="295.21" x2="105.24" y2="-2.14" />
		<line class="lines__path" x1="399.74" y1="295.21" x2="697.09" y2="-2.14" />
	</g>

	<g id="lines-martini-19">
		<line class="lines__path" x1="402.58" y1="312.32" x2="88.13" y2="-2.14" />
		<line class="lines__path" x1="399.75" y1="312.32" x2="714.2" y2="-2.14" />
	</g>

	<g id="lines-martini-20">
		<line class="lines__path" x1="402.58" y1="329.42" x2="71.02" y2="-2.14" />
		<line class="lines__path" x1="399.75" y1="329.42" x2="731.31" y2="-2.14" />
	</g>

	<g id="lines-martini-21">
		<line class="lines__path" x1="402.58" y1="346.53" x2="53.91" y2="-2.14" />
		<line class="lines__path" x1="399.75" y1="346.53" x2="748.42" y2="-2.14" />
	</g>

	<g id="lines-martini-22">
		<line class="lines__path" x1="402.57" y1="363.63" x2="36.81" y2="-2.14" />
		<line class="lines__path" x1="399.76" y1="363.63" x2="765.52" y2="-2.14" />
	</g>

	<g id="lines-martini-23">
		<polyline class="lines__path" points="395.61 601.41 395.61 375.12 18.56 -3.59" />
		<polyline class="lines__path" points="407.64 601.41 407.64 375.12 784.68 -3.59" />
	</g>

	<g id="lines-martini-24">
		<polyline class="lines__path" points="383.21 601.38 383.21 380.15 1.29 -3.46" />
		<polyline class="lines__path" points="419.62 601.38 419.62 380.15 801.55 -3.46" />
	</g>
</svg>