<?xml version="1.0" encoding="utf-8"?>
<!-- Generator: Adobe Illustrator 26.0.2, SVG Export Plug-In . SVG Version: 6.00 Build 0)  -->
<svg version="1.1" id="Layer_1" xmlns="http://www.w3.org/2000/svg" xmlns:xlink="http://www.w3.org/1999/xlink" x="0px" y="0px"
	 viewBox="0 0 300 300" style="enable-background:new 0 0 300 300;" xml:space="preserve">
<style type="text/css">
	.st0{fill:#E34626;}
	.st1{fill:#414042;}
</style>
<circle class="st0" cx="91.2" cy="83.8" r="24.4"/>
<circle class="st0" cx="102" cy="31.1" r="13.6"/>
<circle class="st0" cx="208.1" cy="83.8" r="24.4"/>
<circle class="st0" cx="197.3" cy="31.1" r="13.6"/>
<path class="st1" d="M133.4,0c-5.2,0-9.4,4.2-9.4,9.4c0,0,0,0,0,0v122.1c-21.9-18-54.2-14.9-72.2,7s-14.9,54.2,7,72.2
	c21.9,18,54.2,14.9,72.2-7c7.2-8.8,11.3-19.7,11.7-31.1c0-0.2,0-0.5,0-0.8V9.4C142.8,4.2,138.6,0,133.4,0C133.4,0,133.4,0,133.4,0z
	 M91.4,201.5c-16.7,0-30.3-13.6-30.3-30.3s13.6-30.3,30.3-30.3c16.7,0,30.3,13.6,30.3,30.3l0,0C121.7,187.9,108.1,201.5,91.4,201.5z
	"/>
<path class="st1" d="M259.3,168.7c-1.3-28.3-25.3-50.2-53.6-48.9c-11.1,0.5-21.6,4.6-30.2,11.6V9.4c0-5.2-4.2-9.4-9.4-9.4
	s-9.4,4.2-9.4,9.4V208c0,5.8,4.7,10.5,10.5,10.5c5.8,0,10.5-4.7,10.5-10.5v-38.1c0-0.4,0-0.7-0.1-1h0.1
	c1.3-16.7,15.8-29.2,32.5-27.9c14.9,1.1,26.8,13,27.9,27.9h0.1c0,0.3-0.1,0.7-0.1,1V208c0,5.8,4.7,10.5,10.5,10.5
	c5.8,0,10.5-4.7,10.5-10.5v-38.1C259.4,169.5,259.4,169.1,259.3,168.7z"/>
<path class="st1" d="M11.7,288.8c-3.5,0-5.4-1.9-5.4-5.4v-32.7c0-3.5,1.9-5.4,5.4-5.4h7.9c9.4,0,14.2,4,14.2,13.2v17.1
	c0,9.2-4.9,13.2-14.2,13.2L11.7,288.8z M29.1,259.3c0-7.3-3.2-9.8-9.6-9.8h-6.5c-1.6,0-2.2,0.6-2.2,2.3v30.5c0,1.7,0.6,2.3,2.2,2.3
	h6.5c6.4,0,9.6-2.5,9.6-9.8L29.1,259.3z"/>
<path class="st1" d="M63.5,258c0-1.6,0.8-2.3,2.2-2.3c1.3,0,2.2,0.8,2.2,2.3v20.6c0,7.5-4,11-11.6,11s-11.6-3.5-11.6-11V258
	c0-1.6,0.8-2.3,2.2-2.3c1.3,0,2.2,0.8,2.2,2.3v19.8c0,5.6,2.4,7.8,7.3,7.8s7.3-2.2,7.3-7.8V258z"/>
<path class="st1" d="M80.5,245c0-1.6,0.8-2.3,2.2-2.3s2.2,0.8,2.2,2.3V287c0,1.6-0.8,2.3-2.2,2.3s-2.2-0.8-2.2-2.3V245z"/>
<path class="st1" d="M103,246.8c0,1.9-1,2.8-2.7,2.8s-2.7-1-2.7-2.8v-0.3c-0.1-1.5,1.1-2.7,2.5-2.8c1.5-0.1,2.7,1.1,2.8,2.5
	c0,0.1,0,0.2,0,0.3V246.8z M98.2,258c0-1.6,0.8-2.3,2.2-2.3c1.3,0,2.2,0.8,2.2,2.3v29c0,1.6-0.8,2.3-2.2,2.3c-1.3,0-2.2-0.8-2.2-2.3
	V258z"/>
<path class="st1" d="M134.1,267.2c0-5.6-2.4-7.8-7.3-7.8s-7.3,2.2-7.3,7.8V287c0,1.6-0.8,2.3-2.2,2.3s-2.2-0.8-2.2-2.3v-20.6
	c0-7.5,4-11,11.6-11s11.6,3.5,11.6,11V287c0,1.6-0.8,2.3-2.2,2.3s-2.2-0.8-2.2-2.3V267.2z"/>
<path class="st1" d="M160.7,300c-5.8,0-8.9-2.1-10.5-5.9c-0.1-0.3-0.2-0.7-0.2-1.1c-0.1-1.1,0.7-2,1.8-2.1c0.1,0,0.2,0,0.3,0
	c0.9,0,1.7,0.5,2,1.3c1.2,2.6,3.2,3.8,6.6,3.8c5.5,0,8-2.3,8-8V284h-0.1c-1.9,2.5-4.9,3.5-8.5,3.5c-6.7,0-10.8-3.6-10.8-11.2v-9.6
	c0-7.7,4-11.2,11.9-11.2c7.9,0,11.9,3.6,11.9,11.2v22C173.1,296.4,169,300,160.7,300z M168.8,267.4c0-5.7-2.5-8-7.5-8
	s-7.5,2.3-7.5,8v8.1c0,5.7,2.5,7.9,7.5,7.9c5,0,7.5-2.3,7.5-7.9L168.8,267.4z"/>
<path class="st1" d="M221.9,268.5h-19.2v18.3c0,1.7-0.9,2.5-2.3,2.5s-2.3-0.8-2.3-2.5v-39.5c0-1.7,0.8-2.5,2.3-2.5s2.3,0.8,2.3,2.5
	v17h19.2v-17c0-1.7,0.8-2.5,2.3-2.5c1.5,0,2.3,0.8,2.3,2.5v39.5c0,1.7-0.9,2.5-2.3,2.5c-1.4,0-2.3-0.8-2.3-2.5V268.5z"/>
<path class="st1" d="M260.1,278.6c0,7.5-4,11-11.6,11c-7.7,0-11.6-3.5-11.6-10.9v-0.4c0-5.5,3.2-8,8.8-8h10.1v-3.1
	c0-5.6-2.4-7.8-7.3-7.8c-3.4,0-5.5,1.3-6.5,3.8c-0.3,0.8-1.1,1.4-2,1.3c-1.1,0.1-2-0.7-2.2-1.7c0-0.1,0-0.3,0-0.4
	c0-0.4,0.1-0.7,0.3-1.1c1.5-3.6,4.7-5.9,10.5-5.9c7.7,0,11.6,3.5,11.6,11L260.1,278.6z M255.7,274.2h-9.5c-3.4,0-5,1.4-5,4.5
	c0,4.7,2.3,6.8,7.3,6.8c4.9,0,7.3-2.2,7.3-7.8L255.7,274.2z"/>
<path class="st1" d="M271.7,245c0-1.6,0.8-2.3,2.2-2.3c1.3,0,2.2,0.8,2.2,2.3V287c0,1.6-0.8,2.3-2.2,2.3c-1.3,0-2.2-0.8-2.2-2.3V245
	z"/>
<path class="st1" d="M289.4,245c0-1.6,0.8-2.3,2.2-2.3s2.2,0.8,2.2,2.3V287c0,1.6-0.8,2.3-2.2,2.3s-2.2-0.8-2.2-2.3V245z"/>
</svg>
