<svg xmlns="http://www.w3.org/2000/svg" width="450" height="450.001" viewBox="0 0 450 450.001">
  <path id="Subtraction_10" data-name="Subtraction 10"
    d="M635-522H185.051a226.64,226.64,0,0,0,45.3-4.571,223.872,223.872,0,0,0,42.235-13.11A225.015,225.015,0,0,0,310.8-560.427,226.6,226.6,0,0,0,344.1-587.9a226.605,226.605,0,0,0,27.475-33.3,225.006,225.006,0,0,0,20.745-38.219,223.864,223.864,0,0,0,13.11-42.235A226.66,226.66,0,0,0,410-747a226.663,226.663,0,0,0-4.571-45.346,223.861,223.861,0,0,0-13.11-42.235,225.013,225.013,0,0,0-20.745-38.22A226.62,226.62,0,0,0,344.1-906.1a226.612,226.612,0,0,0-33.3-27.475,225.021,225.021,0,0,0-38.219-20.745,223.874,223.874,0,0,0-42.235-13.11A226.672,226.672,0,0,0,185-972H635v450Z"
    transform="translate(-185 972)" fill="#c9e9eb" />
</svg>